<svg width="233" height="232" viewBox="0 0 233 232" fill="none" xmlns="http://www.w3.org/2000/svg">
<path d="M232.49 116C232.505 134.699 227.992 153.123 219.34 169.7C210.687 186.276 198.15 200.511 182.8 211.19C182.521 211.39 182.231 211.59 181.941 211.78C180.26 212.94 178.547 214.05 176.8 215.11C174.34 216.61 171.824 218.02 169.25 219.34C167.691 220.14 166.12 220.9 164.521 221.62C164.12 221.8 163.711 221.99 163.3 222.16C160.51 223.4 157.66 224.53 154.76 225.53C147.186 228.186 139.353 230.036 131.39 231.05C126.449 231.686 121.472 232.003 116.49 232C113.981 232 111.481 231.92 109.01 231.76C106.85 231.62 104.711 231.43 102.59 231.17C99.1803 230.76 95.8102 230.21 92.4904 229.5C92.3805 229.48 92.2604 229.45 92.1505 229.43C85.2533 227.971 78.5073 225.872 72.0001 223.16C70.2306 222.42 68.4806 221.65 66.7604 220.82C64.5905 219.8 62.4638 218.71 60.3805 217.55C42.4755 207.658 27.5046 193.207 16.9858 175.662C6.46692 158.118 0.77419 138.104 0.48476 117.65C0.19533 97.1961 5.31951 77.0292 15.3377 59.1943C25.3559 41.3593 39.9119 26.4905 57.5299 16.0954C75.1478 5.70026 95.2012 0.148536 115.657 0.00305663C136.112 -0.142422 156.243 5.12352 174.007 15.267C191.771 25.4105 206.537 40.0708 216.808 57.7614C227.078 75.4521 232.489 95.5441 232.49 116V116Z" fill="#F1F1F1"/>
<path d="M113.304 144.589C127.61 144.589 139.207 132.992 139.207 118.686C139.207 104.38 127.61 92.7828 113.304 92.7828C98.998 92.7828 87.4009 104.38 87.4009 118.686C87.4009 132.992 98.998 144.589 113.304 144.589Z" fill="#FFB8B8"/>
<path d="M102.59 231.17C99.1802 230.76 95.8101 230.21 92.4902 229.5L95.6401 158.62L96.0903 158.15L102.54 151.34H123.05L130.62 158.67L131.26 159.3L147.45 174.81L154.76 225.53C147.186 228.186 139.353 230.036 131.39 231.05C126.449 231.686 121.472 232.003 116.49 232C113.98 232 111.48 231.92 109.01 231.76C106.85 231.62 104.71 231.43 102.59 231.17Z" fill="#CBCBCB"/>
<path d="M66.7603 220.82C64.5903 219.8 62.4637 218.71 60.3804 217.55C60.1704 198.35 60.0303 185.6 60.0303 185.6L62.4702 184.11C62.4993 184.095 62.5293 184.082 62.5601 184.07L90.25 167.25L96.0601 157.81L96.0903 158.15L97.8003 178.05C102.95 195.629 106.698 213.589 109.01 231.76C106.85 231.62 104.711 231.43 102.59 231.17C99.1802 230.76 95.8101 230.21 92.4903 229.5C92.3804 229.48 92.2603 229.45 92.1505 229.43C85.2532 227.972 78.5072 225.872 72.0001 223.16C70.2304 222.42 68.4805 221.65 66.7603 220.82Z" fill="#2F2E41"/>
<path d="M154.76 225.53C147.186 228.186 139.353 230.037 131.39 231.05C130.287 224.596 129.881 218.041 130.18 211.5C132.34 176.97 127.36 157.81 129.521 157.81L130.62 158.67L144.21 169.41L162.1 175.97H162.11L174.42 180.48L176.59 181.28V182.31C176.6 185.87 176.62 198.33 176.8 215.11C174.34 216.61 171.824 218.02 169.25 219.34C167.691 220.14 166.12 220.9 164.521 221.62C164.12 221.8 163.711 221.99 163.3 222.16C160.51 223.4 157.66 224.53 154.76 225.53Z" fill="#2F2E41"/>
<path d="M88.7981 126.79C88.7981 126.79 90.9989 122.925 90.4873 110.013C89.9756 97.102 109.637 104.405 126.066 103.173C142.495 101.941 139.017 124.729 139.017 124.729C139.017 124.729 140.202 123.374 142.74 112.376C145.277 101.378 139.516 90.4182 139.516 90.4182C137.819 78.8613 128.674 82.5653 128.674 82.5653C133.078 84.2798 132.232 87.9458 132.232 87.9458C128.504 81.4096 119.359 85.1136 119.359 85.1136C107.162 77.4597 94.8001 87.539 94.8001 87.539C80.0655 90.8831 88.7068 102.601 88.7068 102.601C73.8886 110.089 88.7981 126.79 88.7981 126.79Z" fill="#2F2E41"/>
<path d="M47.8101 209.49C48.1904 200.7 48.3604 195.03 48.1602 194.24C47.1304 190.12 61.1904 184.6 62.4702 184.11C62.4993 184.095 62.5293 184.082 62.5601 184.07L65.4204 185.6L66.7603 220.82C64.5903 219.8 62.4637 218.71 60.3804 217.55C56.0203 215.138 51.8214 212.446 47.8101 209.49V209.49Z" fill="#2F2E41"/>
<path d="M176.8 215.11C174.34 216.61 171.824 218.02 169.25 219.34C167.69 220.14 166.12 220.9 164.521 221.62C164.12 221.8 163.71 221.99 163.3 222.16L158.8 177.73L161.43 175.81C161.43 175.81 161.67 175.87 162.1 175.97H162.11C164.22 176.49 170.7 178.21 174.42 180.48C175.251 180.951 175.986 181.571 176.59 182.31C176.958 182.751 177.141 183.317 177.1 183.89C176.98 185.05 178.98 196.05 181.94 211.78C180.26 212.94 178.547 214.05 176.8 215.11Z" fill="#2F2E41"/>
</svg>